<svg xmlns="http://www.w3.org/2000/svg" viewBox="0 0 64 80" x="0px" y="0px"><title>clear, delete, backspace</title><g><path d="M49.21,17.4H24.132a5.032,5.032,0,0,0-3.584,1.514l-9.342,9.6a4.975,4.975,0,0,0,0,6.972l9.343,9.6A5.028,5.028,0,0,0,24.132,46.6H49.21a5.006,5.006,0,0,0,5-5V22.4A5.006,5.006,0,0,0,49.21,17.4Zm3,24.208a3,3,0,0,1-3,3H24.132a3.02,3.02,0,0,1-2.15-.909l-9.342-9.6a2.985,2.985,0,0,1,0-4.184l9.341-9.6a3.024,3.024,0,0,1,2.151-.909H49.21a3,3,0,0,1,3,3ZM39.686,28.822,36.508,32l3.178,3.178a1,1,0,0,1-1.415,1.414l-3.177-3.178-3.177,3.178A1,1,0,0,1,30.5,35.178L33.68,32,30.5,28.822a1,1,0,0,1,1.414-1.414l3.177,3.178,3.177-3.178a1,1,0,0,1,1.415,1.414Z"/></g></svg>