<svg xmlns="http://www.w3.org/2000/svg" xmlns:xlink="http://www.w3.org/1999/xlink" version="1.1" x="0px" y="0px" viewBox="0 0 100 125" style="enable-background:new 0 0 100 100;" xml:space="preserve"><path d="M87.4,15.9l-3.3-3.3c-3.4-3.4-9-3.4-12.5,0L17.2,66.9c0,0,0,0,0,0c0,0,0,0.1-0.1,0.1c-0.1,0.1-0.1,0.2-0.2,0.3c0,0,0,0,0,0  l-6.9,21.2c0,0,0,0.1,0,0.1c0,0.1,0,0.1,0,0.2c0,0.1,0,0.1,0,0.2c0,0,0,0.1,0,0.1c0,0,0,0,0,0c0.1,0.2,0.2,0.4,0.3,0.5  c0,0,0.1,0,0.1,0.1c0.1,0,0.1,0.1,0.2,0.1c0.1,0,0.2,0.1,0.3,0.1c0.1,0,0.2,0,0.3-0.1L32.6,83c0,0,0,0,0,0c0,0,0,0,0.1,0  c0.1,0,0.1-0.1,0.2-0.1c0.1,0,0.1-0.1,0.2-0.1c0,0,0,0,0,0l0,0c0,0,0,0,0,0l54.4-54.4C90.8,24.9,90.8,19.4,87.4,15.9z M62.5,24.8  l5.6,5.6L25.9,72.6c-0.8-2.7-2.9-4.8-5.6-5.6L62.5,24.8z M12.8,87.2l1.9-5.7l3.9,3.9L12.8,87.2z M20.9,84.5l-5.4-5.4l3.3-10.2  c3,0.4,5.3,2.9,5.3,5.9c0,0.1,0,0.3,0.1,0.4c0.1,0.3,0.3,0.5,0.6,0.6c0.1,0.1,0.3,0.1,0.4,0.1c3.1,0,5.6,2.3,6,5.3L20.9,84.5z   M33,79.7c-0.8-2.7-2.9-4.8-5.6-5.6l42.2-42.2l5.6,5.6L33,79.7z M76.8,35.9L64.1,23.2l3.1-3.1l12.7,12.7L76.8,35.9z M81.4,31.3  L68.7,18.6l4.5-4.5c2.6-2.6,6.8-2.6,9.4,0l3.3,3.3c2.6,2.6,2.6,6.8,0,9.4L81.4,31.3z"/></svg>