<svg xmlns="http://www.w3.org/2000/svg" data-name="Layer 1" viewBox="0 0 100 125" x="0px" y="0px"><title>A</title><path d="M31.23938,32.02667l-9.93286-6.31054A37.99529,37.99529,0,0,1,87.99963,50.62219,38.3313,38.3313,0,0,1,77.312,77.93378,38.95959,38.95959,0,0,1,50,89.87177,39.58461,39.58461,0,0,1,21.80408,78.81769,40.21052,40.21052,0,0,1,9.5,50.62177h-2a42.83581,42.83581,0,0,0,12.006,30.494A43.4598,43.4598,0,0,0,50,94.37177,44.08493,44.08493,0,0,0,81.37781,81.99963,44.70916,44.70916,0,0,0,95,50.62177a44.9856,44.9856,0,0,0-79.64783-28.6886L5,15.35614l4.7843,21.455Z"/><path d="M62.39026,28.2052,50.1864,45.94055c-.06323-.0025-.12256-.0188-.18652-.0188a4.69159,4.69159,0,0,0-2.50025,8.66669V83.62219h5V54.58881a4.6757,4.6757,0,0,0,1.81458-5.82673L66.5094,31.03918Z"/>
</svg>