<svg xmlns="http://www.w3.org/2000/svg" xmlns:xlink="http://www.w3.org/1999/xlink" version="1.1" x="0px" y="0px" viewBox="0 0 100 125" style="enable-background:new 0 0 100 100;" xml:space="preserve"><path d="M38.2,31.7h23.5c0.6,0,1-0.4,1-1V21c0-0.6-0.4-1-1-1H38.2c-0.6,0-1,0.4-1,1v9.7C37.2,31.2,37.7,31.7,38.2,31.7z M39.2,22  h21.5v7.7H39.2V22z M34.9,37.2V44c0,0.6,0.4,1,1,1h6.8c0.6,0,1-0.4,1-1v-6.8c0-0.6-0.4-1-1-1h-6.8C35.3,36.2,34.9,36.7,34.9,37.2z   M36.9,38.2h4.8V43h-4.8V38.2z M43.7,50.3c0-0.6-0.4-1-1-1h-6.8c-0.6,0-1,0.4-1,1v6.8c0,0.6,0.4,1,1,1h6.8c0.6,0,1-0.4,1-1V50.3z   M41.7,56.1h-4.8v-4.8h4.8V56.1z M42.7,62.4h-6.8c-0.6,0-1,0.4-1,1v6.8c0,0.6,0.4,1,1,1h6.8c0.6,0,1-0.4,1-1v-6.8  C43.7,62.9,43.3,62.4,42.7,62.4z M41.7,69.2h-4.8v-4.8h4.8V69.2z M66.6,40.6c0,0.6-0.4,1-1,1H48.7c-0.6,0-1-0.4-1-1s0.4-1,1-1h16.9  C66.2,39.6,66.6,40.1,66.6,40.6z M66.6,53.7c0,0.6-0.4,1-1,1H48.7c-0.6,0-1-0.4-1-1s0.4-1,1-1h16.9C66.2,52.7,66.6,53.2,66.6,53.7z   M66.6,66.8c0,0.6-0.4,1-1,1H48.7c-0.6,0-1-0.4-1-1s0.4-1,1-1h16.9C66.2,65.8,66.6,66.3,66.6,66.8z M71.1,26.5V79c0,0.6-0.4,1-1,1  H29.9c-0.6,0-1-0.4-1-1V26.5c0-0.6,0.4-1,1-1h5.4v2h-4.4V78h38.3V27.5h-4.4v-2h5.4C70.7,25.5,71.1,25.9,71.1,26.5z"/>
</svg>