<svg xmlns="http://www.w3.org/2000/svg" xmlns:xlink="http://www.w3.org/1999/xlink" version="1.1" x="0px" y="0px" viewBox="0 0 73 91.25" style="enable-background:new 0 0 73 73;" xml:space="preserve"><g><path d="M7.7463965,58.058506c-0.0048828,0-0.0087891,0-0.0136719,0.0009766   c-0.5851154,0.0221634-0.882515,0.4603767-0.882988,0.9000854c-0.0004888,0.4544334,0.3161678,0.9104614,0.9601364,0.9104614   c0.5504203,0,0.9225001-0.4332733,0.9046283-0.9104385C8.6975765,58.5077324,8.2041531,57.9825821,7.7463965,58.058506z"/><path d="M33.9290123,16.4833088v0.0009766c-0.0767708,0.0203228-0.0913658,0.0336647-0.1599121,0.0528564   c-3.4305401,0.614502-6.605711,3.322876-8.0836163,6.2867432c-2.6831226,5.3810806-0.916935,12.4678745,5.1655273,15.6138935   c-0.1903076,0.2728271-0.3763428,0.5478516-0.5562744,0.822876c-0.8745842-0.8138313-1.8674431-0.9299469-2.9118652-0.4938965   c-0.8682041-1.3677711-2.969389-1.6551437-4.6401367,0.1060791c-0.9120216-1.4812927-2.7325916-1.1695328-4.0783691-0.1522217   c-1.0760155,0.8125381-5.258213,7.3942642-5.9765625,8.5410156c-0.8168945,1.3031006-1.6972656,2.9838867-1.9197388,4.9995117   c-1.4578838-0.4556274-2.9159126,0.3419647-2.9900517,1.8173828c-1.465271,1.1251221-2.5858765,2.3587646-3.3968506,3.3178711   c-0.6418772,0.7566643,0.5045123,1.7266655,1.1445313,0.96875C6.1825538,57.589756,7.06146,56.6258888,8.1527081,55.709507   c0.3009167,0.3168526,0.6650667,2.9311829,7.4257202,7.1429443c0.4539185,0.2828369,0.8563843,0.5061035,1.2173462,0.6826172   c-0.994318,1.0515175-2.7406111,2.7027092-3.4234009,3.5380821c-0.6321344,0.7736588,0.545085,1.7042618,1.1621094,0.9492188   c0.6935482-0.8488464,2.9839668-2.9910965,3.8552246-4.0134277c1.1760807,0.0854416,2.0295334-0.6966743,1.875-2.1171837   c14.7546253-3.8025093,15.0221653-3.7449379,16.3391094-4.6113281c0.7380562-0.4896889,1.4293861-1.0545998,1.7521973-1.8745117   c0.300312-0.3661308,0.4634743-0.7743073,0.5056152-1.0974121h0.0009766   c0.0703125-0.4023438,0.0351563-0.8476563-0.1064453-1.3642578c-0.7626953-2.7412109-4.0625-2.2148438-6.0351563-1.8984375   c-1.0684319,0.1702881-2.3629627,0.3079948-3.66992,0.9082031c2.2865543-4.871357,3.935236-6.0188942,7.5031719-12.1171875   c5.8461647-0.0751305,11.4789314-4.2271194,11.8640137-12.4218769c0-0.0039063,0-0.0078125,0-0.0117188   C48.304348,20.0499401,41.2488556,14.5128632,33.9290123,16.4833088z M27.9446392,50.777256   c-0.6170902,1.3344765-0.6319847,1.2890129-0.6660156,1.4648438c-0.2272835,1.2060356,0.5417519,1.7823944,1.5,1.5507813   c0.3779926-0.0934372,0.8468647-0.7998314,3.6357403-1.1816406c1.6524506-0.220829,4.4426003-0.8951759,4.8955078,0.7333984   c0.0810547,0.2910156,0.1054688,0.5283203,0.0742188,0.7060547c0,0.0039063-0.0009766,0.0078125-0.0019531,0.0117188   c-0.0927887,0.1152344,0.1700668,0.5460167-1.6738281,1.2207031c-5.7827702,2.0867233-13.9320908,3.9958076-17.2441387,4.4013672   c-0.901104,0.1070175-0.8703823,1.4345932,0.0452881,1.4873047c0.1848755,0.2808838,0.3485718,1.0302734,0.2906494,1.2255859   c-0.6582756,0.8342476-5.5733061-2.9815521-6.3828125-3.6689453c-1.3427734-1.1376953-2.3154297-2.3564453-2.8925781-3.6230469   c-0.2333984-0.5107422-0.3056641-0.8867188-0.21875-1.1474609c0.090024-0.2562256,0.6152315-0.5347633,1.4316406-0.0791016   c0.0942678,1.2109871,1.5847998,0.9221077,1.4980469-0.0166016c-0.3147783-3.4178429,1.605566-5.8165588,6.3388672-12.7441406   c0.3056641-0.4521484,0.6220703-0.9199219,0.9941406-1.2001953c0.5244141-0.3974609,1.2128906-0.6425781,1.5742188-0.5400391   c0.2861328,0.0751953,0.5175781,0.5341797,0.4501953,0.8935547c-0.0114136,0.0610352-0.0008545,0.1191406,0.0025024,0.1783447   c-0.2966919,0.487915-0.5547485,0.96521-0.8853149,1.6038818c-0.4560394,0.8816757,0.8783054,1.5702095,1.3320313,0.6894531   c0.7567234-1.4610596,1.9715347-3.8901482,3.4941406-3.5732422c0.3071289,0.0637207,0.5637207,0.2990723,0.6442871,0.5512695   c-0.4810257,0.673851-1.1759567,1.9434662-2.2399902,3.6206055c-0.5334892,0.8376694,0.7341709,1.6419067,1.265625,0.8046875   c1.4640217-2.308239,1.6500111-2.7950134,2.2050781-3.5703125c0.5858536-0.8177567,1.6543064-0.6998062,2.048584,0.0155029   c-0.6723881,1.111599-1.1416931,1.9529724-2.0075684,3.4962158c-0.4851608,0.8671951,0.8249531,1.5988541,1.3085938,0.734375   c1.0616741-1.893692,5.6714268-10.3558617,7.310545-8.8349609c0.4601097,0.4200974,0.2479591,1.080368-0.0273438,1.6601563   C34.807312,40.6272659,29.471529,47.2750168,27.9446392,50.777256z M37.6995201,37.527256   c0.2930565-0.9836426,0.1413689-1.9564552-0.6123047-2.6435547c-1.523037-1.4179001-3.4200745-0.0671349-4.7363281,1.5576172   c-6.4704838-3.3280029-7.3599777-12.4002666-1.3955059-16.8730488c6.4986515-4.831687,15.8325901-0.2788277,15.9628887,7.8525391   C46.8763771,27.520813,46.81427,36.8356972,37.6995201,37.527256z"/><path d="M68.8079224,15.0555754c0-5.7109375-4.6464844-10.3574219-10.3574257-10.3574219   c-5.864563,0-10.8271141,4.5167394-11.1060829,10.3573914c-0.3072395,6.432476,4.834465,11.3231888,10.7439003,11.2995911   C63.5418777,26.3331757,68.8079224,22.1276302,68.8079224,15.0555754z M67.3079224,15.0555754   c0,4.8837881-3.9736366,8.8574209-8.8574257,8.8574209s-8.8574219-3.9736328-8.8574219-8.8574209   s3.9736328-8.8574219,8.8574219-8.8574219S67.3079224,10.1717863,67.3079224,15.0555754z"/><path d="M11.012022,19.7323322c0.2930737,0.2930737,0.7675676,0.2929783,1.0605469,0l3.4023438-3.4023438l3.1386719,3.1386719   c0.2930737,0.2930737,0.7675686,0.2929783,1.0605469,0c0.2929688-0.2929688,0.2929688-0.7675781,0-1.0605469l-3.1386719-3.1386709   l3.5771484-3.5771484c0.2929688-0.2929688,0.2929688-0.7675781,0-1.0605469s-0.7675781-0.2929688-1.0605469,0l-3.5771484,3.5771484   l-3.2246094-3.2246094c-0.2929688-0.2929688-0.7675781-0.2929688-1.0605469,0s-0.2929688,0.7675781,0,1.0605469   l3.2246094,3.2246094l-3.4023438,3.4023428C10.7190533,18.9647541,10.7190533,19.4393635,11.012022,19.7323322z"/><path d="M42.4387779,24.0956135c-2.598278,2.0164413-5.3237495,4.1988659-7.9296875,6.2275391   c-1.171875-1.2109375-1.7773438-1.9882813-3.1171856-3.8378906c-0.2431641-0.3369141-0.7119141-0.4130859-1.046875-0.1679688   c-0.3359375,0.2431641-0.4111328,0.7119141-0.1679688,1.046875c1.5605469,2.1552734,2.1621075,2.9082031,3.73242,4.4892578   c0.2646637,0.2664394,0.6887321,0.2985477,0.9921875,0.0644531c2.7785378-2.1550961,5.629467-4.4436703,8.4570313-6.6367188   C44.1409607,24.674036,43.228344,23.490593,42.4387779,24.0956135z"/><path d="M56.065731,18.7899494c0.2646637,0.2664375,0.6887321,0.2985477,0.9921875,0.0644531   c2.4608841-1.9089451,5.0708008-4.0026684,7.5664101-5.9384756c0.3271484-0.2539063,0.3867188-0.7255859,0.1328125-1.0527344   c-0.2539063-0.3251953-0.7236328-0.3857422-1.0527382-0.1328125c-2.4280777,1.8847055-4.7950516,3.7823086-7.0390625,5.5283194   c-1.0341797-1.0712891-1.5546875-1.7480459-2.7324219-3.3740225c-0.2431641-0.3359375-0.7128906-0.4121094-1.046875-0.1679688   c-0.3359375,0.2431641-0.4111328,0.7119141-0.1679688,1.046875C54.1165123,16.6952229,54.6565514,17.3700275,56.065731,18.7899494z   "/><path d="M15.5150127,26.2294025c5.7418213-0.023119,10.8446655-4.7930641,10.8446655-11.1738272   c0-5.7109375-4.6455078-10.3574219-10.3564453-10.3574219c-0.7286377,0-1.439209,0.0776367-2.1257935,0.2214355   C8.005249,5.3431807,4.905736,10.3889685,4.8789086,15.4638319C4.8504629,20.8448448,8.2766161,26.2585487,15.5150127,26.2294025z    M24.8596783,15.0555754c0,4.8837881-3.9726563,8.8574209-8.8564453,8.8574209s-8.8574219-3.9736328-8.8574219-8.8574209   S11.1194439,6.198153,16.003233,6.198153S24.8596783,10.1717863,24.8596783,15.0555754z"/><path d="M33.791317,13.0038176c0.1916733,0.9716768,1.6652718,0.6822042,1.4707031-0.2929688   c-0.2265625-1.140625-0.5341797-2.2167969-0.9150391-3.2001953c-0.3577881-0.9260397-1.7564507-0.3832674-1.3984375,0.5410156   C33.2981529,10.9549894,33.581356,11.9471769,33.791317,13.0038176z"/><path d="M39.2766685,12.7118254c0.3168831-1.3801308,0.6306572-3.2073069,0.9941406-4.4833984   c0.2725105-0.9502859-1.166996-1.3725424-1.4414063-0.4121099c-0.3862228,1.3517823-0.7026939,3.202661-1.015625,4.5595708   C37.5929794,13.3460007,39.0537834,13.6767664,39.2766685,12.7118254z"/><path d="M43.0842857,14.0331144l1.8818359-2.2617188c0.6370201-0.7634878-0.523201-1.7232752-1.1523438-0.9589844   l-1.8828125,2.2617188C41.2904778,13.8446054,42.467205,14.7809668,43.0842857,14.0331144z"/></g>
</svg>