<svg xmlns:dc="http://purl.org/dc/elements/1.1/" xmlns:cc="http://creativecommons.org/ns#" xmlns:rdf="http://www.w3.org/1999/02/22-rdf-syntax-ns#" xmlns:svg="http://www.w3.org/2000/svg" xmlns="http://www.w3.org/2000/svg" xmlns:sodipodi="http://sodipodi.sourceforge.net/DTD/sodipodi-0.dtd" xmlns:inkscape="http://www.inkscape.org/namespaces/inkscape" version="1.1" x="0px" y="0px" viewBox="0 0 100 125"><g transform="translate(0,-952.36218)"><path d="m 50,958.36216 c 24.28868,0 44,19.7112 44,44.00004 0,24.2887 -19.71132,44 -44,44 -24.28868,0 -44,-19.7113 -44,-44 0,-24.28884 19.71132,-44.00004 44,-44.00004 z m 0,2.0312 c -23.2078,0 -42,18.7609 -42,41.96884 0,23.2078 18.7922,42.0312 42,42.0312 23.20779,0 42,-18.8234 42,-42.0312 0,-23.20794 -18.79221,-41.96884 -42,-41.96884 z m 0,0.9688 c 22.63182,0 41,18.368 41,41.00004 0,22.6318 -18.36818,41 -41,41 -22.63182,0 -41,-18.3682 -41,-41 0,-22.63204 18.36818,-41.00004 41,-41.00004 z m 0,2 c -21.55094,0 -39,17.4489 -39,39.00004 0,21.5509 17.44906,39.0312 39,39.0312 21.55094,0 39,-17.4803 39,-39.0312 0,-21.55115 -17.44906,-39.00004 -39,-39.00004 z m 1,5.0312 0,5 -2,0 0,-5 z m -0.25,8 c 5.89186,0.1728 11.73001,2.3512 16.40625,6.4688 l 2.875,-2.4376 -2.125,3.0938 c 0.34271,0.3261 0.67159,0.683 1,1.0312 9.84356,10.4382 9.3757,26.90664 -1.0625,36.75004 l -1.375,-1.4687 c 9.65185,-9.102 10.10201,-24.25444 1,-33.90634 -0.23365,-0.2477 -0.4773,-0.4831 -0.71875,-0.7187 L 55,1002.3934 c 0,2.7496 -2.25042,5 -5,5 -2.74958,0 -5,-2.2504 -5,-5 0,-2.74964 2.25042,-5.00004 5,-5.00004 l 15.625,-13.25 c -9.20219,-7.9092 -23.06724,-7.7311 -32.09375,0.7812 -9.65185,9.102 -10.35201,24.81704 -0.9375,34.96884 l -1.4375,1.375 c -10.46857,-11.0007 -9.43821,-27.96894 1,-37.81254 5.17919,-5.096 12.62414,-7.1505 18.59375,-7.0625 z m 22.9375,1.375 1.40625,1.4375 -3.53125,3.5313 -1.40625,-1.4376 z m -47.375,0 3.53125,3.5312 -1.40625,1.4376 -3.53125,-3.5313 z m 40.6875,5.625 -16,14 2,1 z m 17.5,18.50004 0,2 -5,0 0,-2 z m -64,0 0,2 -5,0 0,-2 z m 51.0625,21.125 3.53125,3.5625 -1.40625,1.4063 -3.53125,-3.5313 z m -43.125,0 1.40625,1.4375 -3.53125,3.5313 -1.40625,-1.4063 z" style="text-indent:0;text-transform:none;direction:ltr;block-progression:tb;baseline-shift:baseline;color:#000000;enable-background:accumulate;" fill="#000000" fill-opacity="1" stroke="none" marker="none" visibility="visible" display="inline" overflow="visible"/></g>
</svg>