<svg xmlns="http://www.w3.org/2000/svg" xmlns:xlink="http://www.w3.org/1999/xlink" version="1.1" x="0px" y="0px" viewBox="206 206 100 125" enable-background="new 206 206 100 100" xml:space="preserve"><g><path d="M274.199,293.23c-0.094-2.287-1.608-4.469-4.293-6.169c-0.002-0.001-0.004-0.003-0.006-0.004   c-0.007-0.004-0.012-0.008-0.019-0.013c-0.016-0.01-0.034-0.016-0.05-0.025c-0.03-0.016-0.06-0.033-0.092-0.046   c-0.026-0.01-0.052-0.017-0.079-0.025c-0.027-0.008-0.054-0.017-0.082-0.022c-0.033-0.006-0.066-0.008-0.099-0.01   c-0.02-0.001-0.038-0.006-0.058-0.006h-5.011l-1.038-19.423c-0.007-0.122-0.039-0.241-0.094-0.349l-2.382-4.63l-1.187-18.782   c1.292-0.074,2.321-1.145,2.321-2.456c0-1.329-1.059-2.413-2.378-2.458v-7.293c0-0.477-0.387-0.863-0.863-0.863   c-0.477,0-0.863,0.387-0.863,0.863v7.289h-3.848v-7.289c0-0.477-0.387-0.863-0.863-0.863s-0.863,0.387-0.863,0.863v7.293   c-1.319,0.045-2.378,1.129-2.378,2.458c0,1.31,1.029,2.382,2.322,2.456l-1.187,18.782l-2.382,4.63   c-0.056,0.108-0.088,0.227-0.094,0.349l-1.038,19.423h-5.011c-0.019,0-0.037,0.004-0.056,0.006   c-0.034,0.002-0.068,0.004-0.102,0.01c-0.028,0.005-0.054,0.014-0.08,0.022c-0.027,0.008-0.054,0.014-0.08,0.025   c-0.032,0.013-0.061,0.029-0.091,0.045c-0.017,0.009-0.034,0.015-0.051,0.025c-0.007,0.004-0.013,0.008-0.019,0.013   c-0.002,0.001-0.004,0.002-0.006,0.004c-2.685,1.7-4.198,3.882-4.293,6.169l-1.903,3.693c-0.138,0.268-0.126,0.588,0.03,0.845   c0.157,0.257,0.436,0.414,0.737,0.414h38.666c0.002,0,0.003,0,0.004,0c0.477,0,0.863-0.386,0.863-0.863   c0-0.169-0.049-0.327-0.133-0.46L274.199,293.23z M251.699,241.272c0-0.406,0.33-0.736,0.736-0.736h0.774   c0.002,0,0.003,0.001,0.005,0.001c0.002,0,0.003-0.001,0.005-0.001h5.565c0.002,0,0.003,0.001,0.005,0.001   c0.002,0,0.003-0.001,0.005-0.001h0.774c0.406,0,0.736,0.33,0.736,0.736c0,0.406-0.33,0.736-0.736,0.736h-7.132   C252.029,242.008,251.699,241.678,251.699,241.272z M250.344,267.766l2.38-4.626c0.054-0.106,0.087-0.222,0.094-0.341l1.205-19.064   h3.955l1.205,19.064c0.008,0.119,0.04,0.235,0.094,0.341l2.38,4.626l1.024,19.146h-13.36L250.344,267.766z M242.839,288.639h26.324   c1.778,1.169,2.89,2.543,3.215,3.954h-32.754C239.949,291.181,241.06,289.807,242.839,288.639z M238.084,296.455l1.1-2.135h33.633   l1.1,2.135H238.084z"/><path d="M298.138,264.154c0,0-0.001,0-0.002,0h-4.356l-8.092-28.284c0.964-0.582,1.611-1.637,1.611-2.843   c0-1.832-1.491-3.323-3.323-3.323c-0.651,0-1.257,0.191-1.77,0.516c-6.429-5.471-13.208-7.686-18.038-8.568   c-0.179-4.351-3.774-7.836-8.168-7.836c-4.395,0-7.989,3.485-8.168,7.836c-4.83,0.882-11.61,3.096-18.038,8.568   c-0.513-0.325-1.119-0.516-1.77-0.516c-1.832,0-3.323,1.491-3.323,3.323c0,1.206,0.648,2.26,1.611,2.843l-8.092,28.284h-4.355   c-0.001,0-0.001,0-0.002,0c-0.477,0-0.863,0.386-0.863,0.863v0l0,0l0,0c0,2.216,0.472,4.349,1.403,6.342c0,0,0,0.001,0,0.001   c0.005,0.01,0.009,0.02,0.014,0.031c0.019,0.04,0.041,0.078,0.064,0.114c0.002,0.004,0.006,0.007,0.008,0.01   c0.027,0.039,0.056,0.074,0.088,0.107c0.009,0.01,0.019,0.018,0.028,0.027c0.029,0.027,0.059,0.052,0.091,0.075   c0.01,0.007,0.02,0.015,0.03,0.022c0.041,0.027,0.084,0.051,0.129,0.07c0.01,0.004,0.021,0.007,0.031,0.011   c0.037,0.014,0.076,0.026,0.115,0.036c0.015,0.003,0.029,0.007,0.044,0.009c0.051,0.009,0.102,0.016,0.154,0.016   c0.001,0,0.002,0,0.003,0h25.645c0.001,0,0.002,0,0.003,0c0.052,0,0.103-0.006,0.154-0.016c0.015-0.003,0.029-0.006,0.044-0.009   c0.039-0.009,0.077-0.021,0.114-0.035c0.011-0.004,0.021-0.007,0.032-0.012c0.045-0.019,0.087-0.043,0.128-0.07   c0.011-0.007,0.021-0.015,0.031-0.022c0.031-0.022,0.061-0.047,0.089-0.074c0.01-0.009,0.02-0.018,0.029-0.028   c0.031-0.033,0.061-0.068,0.087-0.106c0.003-0.004,0.006-0.007,0.009-0.011c0.024-0.036,0.046-0.074,0.064-0.114   c0.005-0.01,0.009-0.02,0.014-0.031c0,0,0-0.001,0-0.001c0.93-1.993,1.403-4.126,1.403-6.342l0,0l0,0v0   c0-0.477-0.387-0.863-0.863-0.863c-0.001,0-0.001,0-0.002,0h-4.355l-8.091-28.284c0.963-0.582,1.611-1.637,1.611-2.842   c0-0.555-0.139-1.078-0.38-1.538c6.038-5.119,12.393-7.238,16.978-8.102c0.664,3.847,4.022,6.783,8.056,6.783   c4.033,0,7.392-2.936,8.056-6.783c4.586,0.864,10.94,2.982,16.978,8.102c-0.242,0.46-0.38,0.983-0.38,1.538   c0,1.205,0.647,2.26,1.611,2.842l-8.092,28.284h-4.355c-0.001,0-0.001,0-0.002,0c-0.477,0-0.863,0.386-0.863,0.863v0l0,0l0,0   c0,2.216,0.472,4.35,1.403,6.342c0,0,0,0.001,0.001,0.001c0.005,0.01,0.009,0.02,0.014,0.03c0.019,0.04,0.04,0.078,0.064,0.114   c0.003,0.004,0.006,0.007,0.009,0.011c0.026,0.038,0.056,0.073,0.087,0.106c0.009,0.01,0.019,0.019,0.029,0.028   c0.028,0.027,0.059,0.052,0.09,0.074c0.01,0.007,0.02,0.015,0.03,0.022c0.041,0.027,0.084,0.051,0.129,0.07   c0.01,0.004,0.021,0.007,0.031,0.011c0.037,0.014,0.076,0.026,0.115,0.036c0.014,0.003,0.029,0.007,0.043,0.009   c0.051,0.009,0.102,0.016,0.154,0.016c0.001,0,0.002,0,0.003,0h25.645c0.001,0,0.002,0,0.003,0c0.052,0,0.103-0.006,0.154-0.016   c0.015-0.003,0.029-0.006,0.044-0.009c0.039-0.009,0.077-0.021,0.114-0.036c0.01-0.004,0.021-0.007,0.031-0.011   c0.045-0.019,0.087-0.043,0.128-0.07c0.011-0.007,0.021-0.015,0.031-0.022c0.031-0.022,0.061-0.047,0.089-0.074   c0.01-0.009,0.02-0.018,0.029-0.028c0.031-0.033,0.061-0.068,0.087-0.106c0.003-0.004,0.006-0.007,0.009-0.011   c0.024-0.036,0.046-0.074,0.064-0.114c0.005-0.01,0.009-0.02,0.014-0.03c0,0,0-0.001,0.001-0.001   c0.93-1.992,1.403-4.126,1.403-6.342l0,0l0,0v0C299.002,264.541,298.615,264.154,298.138,264.154z M228.024,231.433   c0.88,0,1.596,0.716,1.596,1.596c0,0.72-0.479,1.329-1.135,1.527l0.369-1.29c0.131-0.459-0.134-0.937-0.593-1.068   c-0.458-0.131-0.937,0.134-1.068,0.593l-0.368,1.288c-0.246-0.281-0.397-0.648-0.397-1.05   C226.429,232.148,227.144,231.433,228.024,231.433z M237.177,265.882c0.001,0,0.002,0,0.002,0h4.114   c-0.094,1.482-0.431,2.916-1.005,4.279H215.76c-0.574-1.363-0.911-2.797-1.005-4.279h4.114c0.001,0,0.002,0,0.002,0   c0.001,0,0.001,0,0.002,0h18.301C237.175,265.881,237.176,265.882,237.177,265.882z M236.032,264.155h-16.015l7.956-27.806   c0.017,0,0.034,0.003,0.052,0.003c0.018,0,0.035-0.002,0.052-0.003L236.032,264.155z M256.001,228.444   c-3.557,0-6.45-2.893-6.45-6.45s2.893-6.45,6.45-6.45c3.557,0,6.45,2.893,6.45,6.45S259.557,228.444,256.001,228.444z    M283.977,231.433c0.88,0,1.596,0.716,1.596,1.596c0,0.402-0.151,0.769-0.397,1.05l-0.368-1.288   c-0.131-0.459-0.61-0.723-1.068-0.593c-0.458,0.131-0.724,0.609-0.593,1.068l0.369,1.29c-0.656-0.198-1.135-0.808-1.135-1.527   C282.381,232.148,283.097,231.433,283.977,231.433z M283.925,236.348c0.018,0,0.035,0.003,0.052,0.003   c0.017,0,0.034-0.002,0.052-0.003l7.956,27.806H275.97L283.925,236.348z M296.241,270.161h-24.528   c-0.574-1.363-0.911-2.797-1.005-4.279h4.114c0.001,0,0.002,0,0.002,0c0.001,0,0.001,0,0.002,0h18.3c0.001,0,0.001,0,0.002,0   c0.001,0,0.002,0,0.002,0h4.114C297.152,267.363,296.815,268.797,296.241,270.161z"/><path d="M255.619,220.218h2.081c0.477,0,0.863-0.387,0.863-0.863s-0.387-0.863-0.863-0.863h-0.837v-0.619   c0-0.477-0.386-0.863-0.863-0.863c-0.477,0-0.863,0.387-0.863,0.863v0.674c-0.972,0.221-1.701,1.09-1.701,2.128   c0,1.204,0.98,2.183,2.183,2.183h0.761c0.251,0,0.456,0.205,0.456,0.456s-0.204,0.456-0.456,0.456H254.3   c-0.477,0-0.863,0.387-0.863,0.863c0,0.477,0.387,0.863,0.863,0.863h0.837v0.62c0,0.477,0.387,0.863,0.863,0.863   c0.477,0,0.863-0.387,0.863-0.863v-0.675c0.972-0.221,1.7-1.09,1.7-2.127c0-1.204-0.979-2.183-2.182-2.183h-0.761   c-0.252,0-0.456-0.205-0.456-0.456C255.163,220.423,255.368,220.218,255.619,220.218z"/></g>
</svg>