<svg xmlns="http://www.w3.org/2000/svg" xmlns:xlink="http://www.w3.org/1999/xlink" version="1.1" x="0px" y="0px" viewBox="0 0 64 80" style="enable-background:new 0 0 64 64;" xml:space="preserve"><g><path d="M51.707,13.293C51.52,13.105,51.265,13,51,13H36v-2c0-2.206-1.794-4-4-4s-4,1.794-4,4v2H8   c-0.404,0-0.769,0.244-0.924,0.617c-0.155,0.374-0.069,0.804,0.217,1.09L11.586,19l-4.293,4.293   c-0.286,0.286-0.372,0.716-0.217,1.09C7.231,24.756,7.596,25,8,25h20v5H13c-0.265,0-0.52,0.105-0.707,0.293l-5,5   c-0.391,0.391-0.391,1.023,0,1.414l5,5C12.48,41.895,12.735,42,13,42h15v14c0,0.552,0.448,1,1,1s1-0.448,1-1V42h4v14   c0,0.552,0.448,1,1,1s1-0.448,1-1V42h20c0.404,0,0.769-0.244,0.924-0.617c0.155-0.374,0.069-0.804-0.217-1.09L52.414,36   l4.293-4.293c0.286-0.286,0.372-0.716,0.217-1.09C56.769,30.244,56.404,30,56,30H36v-5h15c0.265,0,0.52-0.105,0.707-0.293l5-5   c0.391-0.391,0.391-1.023,0-1.414L51.707,13.293z M30,11c0-1.103,0.897-2,2-2s2,0.897,2,2v2h-4V11z M50.293,35.293   c-0.391,0.391-0.391,1.023,0,1.414L53.586,40H13.414l-4-4l4-4h40.172L50.293,35.293z M34,30h-4v-5h4V30z M50.586,23H10.414   l3.293-3.293c0.391-0.391,0.391-1.023,0-1.414L10.414,15H29h6h15.586l4,4L50.586,23z"/><circle cx="22" cy="19" r="1"/><path d="M48,18H27c-0.55,0-1,0.45-1,1c0,0.55,0.45,1,1,1h21c0.55,0,1-0.45,1-1C49,18.45,48.55,18,48,18z"/><circle cx="44" cy="36" r="1"/><path d="M17,36c0,0.55,0.45,1,1,1h21c0.55,0,1-0.45,1-1c0-0.55-0.45-1-1-1H18C17.45,35,17,35.45,17,36z"/></g>
</svg>