<svg xmlns="http://www.w3.org/2000/svg" data-name="Layer 1" viewBox="0 0 100 125" x="0px" y="0px"><defs><style>.cls-1{fill-rule:evenodd;}</style></defs><title>a</title><path className="cls-1" d="M88.084,53.108A15.433,15.433,0,1,0,92.6,64.021a15.384,15.384,0,0,0-4.52-10.913ZM77.172,46.193a17.827,17.827,0,1,1-12.606,5.221,17.772,17.772,0,0,1,12.606-5.221ZM69.589,64.728a1.2,1.2,0,0,1,1.628-1.75l4.071,3.794,7.8-8.006A1.194,1.194,0,0,1,84.8,60.432L76.2,69.257a1.2,1.2,0,0,1-1.689.06l-4.925-4.589ZM52.479,37.971H14.935L7.891,45.015l7.044,7.043H52.479V37.971ZM75.7,15.462H38.159V29.549H75.7l7.043-7.044L75.7,15.462ZM42,54.454V92.569h6.64V54.454Zm6.64-18.878V31.944H42v3.632Zm0-22.51V7.431H42v5.635Zm-9.035,0V6.233a1.2,1.2,0,0,1,1.2-1.2h9.036a1.2,1.2,0,0,1,1.2,1.2v6.833H76.2a1.2,1.2,0,0,1,.846.351l8.234,8.234a1.168,1.168,0,0,1,.126.146,1.077,1.077,0,0,1,.095.152,1.182,1.182,0,0,1,.137.556,1.2,1.2,0,0,1-.35.847l-8.234,8.234a1.2,1.2,0,0,1-.854.358H51.035v3.632h2.642a1.2,1.2,0,0,1,1.2,1.2V53.256a1.2,1.2,0,0,1-1.2,1.2H51.035V93.767a1.2,1.2,0,0,1-1.2,1.2H40.8a1.2,1.2,0,0,1-1.2-1.2V54.454H14.439a1.192,1.192,0,0,1-.854-.358L5.351,45.862a1.2,1.2,0,0,1-.214-1.4,1.044,1.044,0,0,1,.1-.152,1.159,1.159,0,0,1,.126-.145l8.234-8.234a1.193,1.193,0,0,1,.847-.351H39.6V31.944H36.962a1.2,1.2,0,0,1-1.2-1.2V14.264a1.2,1.2,0,0,1,1.2-1.2Zm4.108,9.544a1.2,1.2,0,0,1,2.395,0v.064a1.2,1.2,0,1,1-2.395,0V22.61Zm0,22.785a1.2,1.2,0,1,1,2.395,0v.064a1.2,1.2,0,1,1-2.395,0Z"/>
</svg>